<svg data-v-6805eed4="" version="1.0" xmlns="http://www.w3.org/2000/svg" xmlns:xlink="http://www.w3.org/1999/xlink" width="100%" height="100%" viewBox="0 0 340.000000 250.000000" preserveAspectRatio="xMidYMid meet" color-interpolation-filters="sRGB" style="margin: auto;"> <rect data-v-6805eed4="" x="0" y="0" width="100%" height="100%" fill="#fcfcfc" fill-opacity="1" class="background"></rect> <rect data-v-6805eed4="" x="0" y="0" width="100%" height="100%" fill="url(#watermark)" fill-opacity="1" class="watermarklayer"></rect> <g data-v-6805eed4="" fill="#b722ff" class="basesvg" transform="translate(86.93000030517578,103.71000099182129)"><g data-gra="path-name" fill-rule="" class="tp-name" fill="url(#c5df3f2c-8eea-4426-975e-f821a855bb71)"><g transform="scale(1)"><g><path d="M40.5-24.77L38.74-15.08 28.21-15.08 25.61 0 13.26 0 20.41-40.63 45.76-40.63 42.32-30.23 30.88-30.23 29.96-24.77 40.5-24.77ZM11.83-3.12L11.31-0.2-16.25-3.12 11.83-3.12ZM14.04-15.67L13.52-12.74-14.04-15.67 14.04-15.67ZM15.15-21.91L14.63-18.98-12.94-21.91 15.15-21.91ZM16.25-28.14L15.73-25.22-11.83-28.14 16.25-28.14ZM17.29-34.38L16.84-31.46-10.72-34.38 17.29-34.38ZM12.94-9.43L12.42-6.5-15.15-9.43 12.94-9.43ZM18.39-40.63L17.88-37.7-9.62-40.63 18.39-40.63ZM60.06-25.22L60.06-25.22 32.5-28.14 60.52-28.14Q60.19-26.85 60.06-25.22ZM34.32-34.38L62.27-34.38 61.3-31.53 34.32-34.38ZM33.09-21.91L60.06-21.91Q60.19-20.15 60.58-18.98L60.58-18.98 33.09-21.91ZM69.16-12.74L69.16-12.74 34.77-15.67 62.79-15.67Q64.94-13.59 69.16-12.74ZM39.2-40.63L67.14-40.63Q65.65-39.65 64.28-37.96L64.28-37.96 39.2-40.63ZM57-6.57L33.67-9.43 57.98-9.43 57-6.57ZM54.92-0.26L32.56-3.12 55.9-3.12 54.92-0.26ZM57.13-0.72L60.77-11.44Q66.23-9.95 70.75-9.95 75.27-9.95 78.13-10.34L78.13-10.34 78.65-13.59 73.25-14.11Q67.08-14.69 64.51-16.9 61.95-19.11 61.95-23.14L61.95-23.14Q61.95-24.89 62.34-27.04L62.34-27.04Q63.83-35.36 67.8-38.48 71.76-41.6 79.98-41.6 88.2-41.6 94.51-39.98L94.51-39.98 91.13-29.57Q85.47-30.55 82.06-30.55 78.65-30.55 76.18-30.23L76.18-30.23 75.66-27.04 80.02-26.59Q86.65-25.87 89.44-23.43 92.23-21 92.23-16.9L92.23-16.9Q92.23-12.74 90.48-8.32L90.48-8.32Q89.5-6.04 88.43-4.52 87.36-2.99 85.7-1.92 84.05-0.84 82.68-0.29 81.31 0.26 79.17 0.52L79.17 0.52Q76.18 0.98 71.76 0.98L71.76 0.98Q63.7 0.98 57.13-0.72L57.13-0.72ZM131.1 0L124.47-14.43Q124.22-14.88 124.22-15.7 124.22-16.51 124.34-17.55L124.34-17.55 123.83-17.55 120.77 0 108.42 0 115.57-40.63 127.2-40.63 133.84-26.2Q134.03-25.74 134.03-24.93 134.03-24.12 133.9-23.07L133.9-23.07 134.42-23.07 137.54-40.63 149.89-40.63 142.74 0 131.1 0ZM106.99-3.12L106.47-0.2 78.91-3.12 106.99-3.12ZM109.2-15.67L108.68-12.74 81.12-15.67 109.2-15.67ZM110.3-21.91L109.78-18.98 82.22-21.91 110.3-21.91ZM111.41-28.14L110.89-25.22 83.33-28.14 111.41-28.14ZM112.45-34.38L112-31.46 84.44-34.38 112.45-34.38ZM108.09-9.43L107.58-6.5 80.02-9.43 108.09-9.43ZM113.55-40.63L113.03-37.7 85.54-40.63 113.55-40.63Z" transform="translate(16.25, 41.599998474121094)"></path></g> <!----> <!----> <!----> <!----> <!----> <!----> <!----></g></g> <!----></g><defs v-gra="od"><linearGradient x1="0" y1="1" x2="0" y2="0" id="c5df3f2c-8eea-4426-975e-f821a855bb71"><stop offset="0%" stop-color="#b722ff"></stop><stop offset="100%" stop-color="#22d4fe"></stop></linearGradient><filter id="42443b3f1de60f6b6fd3b6a9844b4764" filterUnits="objectBoundingBox"><feColorMatrix type="matrix" values="0 0 0 0 0.99609375  0 0 0 0 0.99609375  0 0 0 0 0.99609375  0 0 0 1 0"></feColorMatrix></filter></defs></svg>