<svg data-v-6805eed4="" version="1.0" xmlns="http://www.w3.org/2000/svg" xmlns:xlink="http://www.w3.org/1999/xlink" width="100%" height="100%" viewBox="0 0 340.000000 250.000000" preserveAspectRatio="xMidYMid meet" color-interpolation-filters="sRGB" style="margin: auto;"> <rect data-v-6805eed4="" x="0" y="0" width="100%" height="100%" fill="#fcfcfc" fill-opacity="1" class="background"></rect> <rect data-v-6805eed4="" x="0" y="0" width="100%" height="100%" fill="url(#watermark)" fill-opacity="1" class="watermarklayer"></rect> <g data-v-6805eed4="" fill="#b722ff" class="basesvg" transform="translate(15.081039428710938,71.57349014282227)"><g data-gra="path-name" fill-rule="" class="tp-name" fill="url(#6044ea45-9de2-4fc0-9d43-84d0f743f0c6)"><g transform="scale(1.5982562255859376)"><g><path d="M26.63-31.928L2.07-31.928 2.07 0 7.85 0 7.85-12.207 26.63-12.207 26.63-19.721 7.85-19.721 7.85-24.414 26.63-24.414 26.63-31.928ZM59.05-5.6290000000000004L59.05-15.054Q59.05-16.718 58.26-17.992L58.26-17.992Q57.48-19.266000000000002 56.22-19.63L56.22-19.63 55.91-19.721 39.55-19.747 39.55-24.414 53.27-24.414 53.27-21.606 59.05-21.606 59.05-26.299000000000003Q59.05-28.626 57.79-30.290000000000003L57.79-30.290000000000003Q56.52-31.928 54.72-31.928L54.72-31.928 38.1-31.928Q36.31-31.928 35.05-30.290000000000003L35.05-30.290000000000003Q33.77-28.626 33.77-26.299000000000003L33.77-26.299000000000003 33.77-16.913Q33.77-15.236 34.56-13.949000000000002L34.56-13.949000000000002Q35.36-12.675 36.6-12.311000000000002L36.6-12.311000000000002 36.91-12.233 53.27-12.207 53.27-7.514 39.55-7.514 39.55-10.348 33.77-10.348 33.77-5.6290000000000004Q33.77-3.302 35.05-1.6640000000000001L35.05-1.6640000000000001Q36.31 0 38.1 0L38.1 0 54.72 0Q56.52 0 57.79-1.6640000000000001L57.79-1.6640000000000001Q59.05-3.302 59.05-5.6290000000000004L59.05-5.6290000000000004Z" transform="translate(-2.069999933242798, 31.92799949645996)"></path></g> <!----> <!----> <!----> <!----> <!----> <!----> <g data-gra="path-name-1" fill="#FFFFFF" transform="translate(0,34.92799949645996)"><g transform="scale(1)"><path d="M28.08-31.928L22.3-31.928 22.3-11.101999999999999 8.59-31.928 2.07-31.928 2.07 0 7.85 0 7.85-20.839000000000002 21.56 0 28.08 0 28.08-31.928ZM35.22-31.928L35.22 0 41 0 41-31.928 35.22-31.928ZM66.21-24.414L66.21-19.721 53.93-19.721 53.93-24.414 66.21-24.414ZM71.58 0L66.64-12.207 67.65-12.207Q69.44-12.207 70.72-13.871L70.72-13.871Q71.99-15.522 71.99-17.836000000000002L71.99-17.836000000000002 71.99-26.299000000000003Q71.99-28.626 70.72-30.290000000000003L70.72-30.290000000000003Q69.44-31.928 67.65-31.928L67.65-31.928 48.14-31.928 48.14 0 53.93 0 53.93-12.207 60.19-12.207 65.26 0 71.58 0ZM83.47 0L95.76 0Q97.55 0 98.81-1.6640000000000001L98.81-1.6640000000000001Q100.09-3.302 100.09-5.6290000000000004L100.09-5.6290000000000004 100.09-31.928 94.31-31.928 94.31-7.514 84.92-7.514 84.92-11.258000000000001 79.14-11.258000000000001 79.14-5.6290000000000004Q79.14-3.302 80.41-1.6640000000000001L80.41-1.6640000000000001Q81.67 0 83.47 0L83.47 0ZM133.24-31.928L127.46-31.928 127.46-19.721 113.01-19.721 113.01-31.928 107.23-31.928 107.23 0 113.01 0 113.01-12.207 127.46-12.207 127.46 0 133.24 0 133.24-31.928ZM146.16-7.514L146.16-24.414 159.16-24.414 159.16-7.514 146.16-7.514ZM144.71 0L160.6 0Q162.4 0 163.68-1.6640000000000001L163.68-1.6640000000000001Q164.94-3.302 164.94-5.6290000000000004L164.94-5.6290000000000004 164.94-26.299000000000003Q164.94-28.626 163.68-30.290000000000003L163.68-30.290000000000003Q162.4-31.928 160.6-31.928L160.6-31.928 144.71-31.928Q142.92-31.928 141.66-30.290000000000003L141.66-30.290000000000003Q140.38-28.626 140.38-26.299000000000003L140.38-26.299000000000003 140.38-5.6290000000000004Q140.38-3.302 141.66-1.6640000000000001L141.66-1.6640000000000001Q142.92 0 144.71 0L144.71 0ZM190.15-24.414L190.15-19.721 177.86-19.721 177.86-24.414 190.15-24.414ZM195.51 0L190.58-12.207 191.58-12.207Q193.37-12.207 194.65-13.871L194.65-13.871Q195.93-15.522 195.93-17.836000000000002L195.93-17.836000000000002 195.93-26.299000000000003Q195.93-28.626 194.65-30.290000000000003L194.65-30.290000000000003Q193.37-31.928 191.58-31.928L191.58-31.928 172.08-31.928 172.08 0 177.86 0 177.86-12.207 184.12-12.207 189.2 0 195.51 0Z" transform="translate(-2.069999933242798, 31.92799949645996)"></path></g></g></g></g> <!----></g><defs v-gra="od"><linearGradient x1="0" y1="1" x2="0" y2="0" id="6044ea45-9de2-4fc0-9d43-84d0f743f0c6"><stop offset="0%" stop-color="#b722ff"></stop><stop offset="100%" stop-color="#22d4fe"></stop></linearGradient><filter id="42443b3f1de60f6b6fd3b6a9844b4764" filterUnits="objectBoundingBox"><feColorMatrix type="matrix" values="0 0 0 0 0.99609375  0 0 0 0 0.99609375  0 0 0 0 0.99609375  0 0 0 1 0"></feColorMatrix></filter></defs></svg>