<svg data-v-6805eed4="" version="1.0" xmlns="http://www.w3.org/2000/svg" xmlns:xlink="http://www.w3.org/1999/xlink" width="100%" height="100%" viewBox="0 0 340.000000 250.000000" preserveAspectRatio="xMidYMid meet" color-interpolation-filters="sRGB" style="margin: auto;"> <rect data-v-6805eed4="" x="0" y="0" width="100%" height="100%" fill="#fcfcfc" fill-opacity="0" class="background"></rect> <rect data-v-6805eed4="" x="0" y="0" width="100%" height="100%" fill="url(#watermark)" fill-opacity="1" class="watermarklayer"></rect> <g data-v-6805eed4="" fill="#b722ff" class="basesvg" transform="translate(82.07000732421875,98.94000053405762)"><g data-gra="path-name" fill-rule="" class="tp-name" fill="url(#1716d0e3-b5af-4cde-94ff-c6118029fb36)"><g transform="scale(1)"><g><path d="M26.63-24.56L2.07-24.56 2.07 0 7.85 0 7.85-9.39 26.63-9.39 26.63-15.17 7.85-15.17 7.85-18.78 26.63-18.78 26.63-24.56ZM56.05-4.33L56.05-11.58Q56.05-12.86 55.26-13.84L55.26-13.84Q54.48-14.82 53.22-15.1L53.22-15.1 52.91-15.17 36.55-15.19 36.55-18.78 50.27-18.78 50.27-16.62 56.05-16.62 56.05-20.23Q56.05-22.02 54.79-23.3L54.79-23.3Q53.52-24.56 51.72-24.56L51.72-24.56 35.1-24.56Q33.31-24.56 32.05-23.3L32.05-23.3Q30.77-22.02 30.77-20.23L30.77-20.23 30.77-13.01Q30.77-11.72 31.56-10.73L31.56-10.73Q32.36-9.75 33.6-9.47L33.6-9.47 33.91-9.41 50.27-9.39 50.27-5.78 36.55-5.78 36.55-7.96 30.77-7.96 30.77-4.33Q30.77-2.54 32.05-1.28L32.05-1.28Q33.31 0 35.1 0L35.1 0 51.72 0Q53.52 0 54.79-1.28L54.79-1.28Q56.05-2.54 56.05-4.33L56.05-4.33Z" transform="translate(-2.069999933242798, 24.559999465942383)"></path></g> <!----> <!----> <!----> <!----> <!----> <!----> <g data-gra="path-name-1" fill="url(#0e06ff9e-454d-403f-81df-d2cb4ec2f5fa)" transform="translate(0,27.559999465942383)"><g transform="scale(1)"><path d="M28.08-24.56L22.3-24.56 22.3-8.54 8.59-24.56 2.07-24.56 2.07 0 7.85 0 7.85-16.03 21.56 0 28.08 0 28.08-24.56ZM32.22-24.56L32.22 0 38 0 38-24.56 32.22-24.56ZM60.21-18.78L60.21-15.17 47.93-15.17 47.93-18.78 60.21-18.78ZM65.58 0L60.64-9.39 61.65-9.39Q63.44-9.39 64.72-10.67L64.72-10.67Q65.99-11.94 65.99-13.72L65.99-13.72 65.99-20.23Q65.99-22.02 64.72-23.3L64.72-23.3Q63.44-24.56 61.65-24.56L61.65-24.56 42.14-24.56 42.14 0 47.93 0 47.93-9.39 54.19-9.39 59.26 0 65.58 0ZM74.47 0L86.76 0Q88.55 0 89.81-1.28L89.81-1.28Q91.09-2.54 91.09-4.33L91.09-4.33 91.09-24.56 85.31-24.56 85.31-5.78 75.92-5.78 75.92-8.66 70.14-8.66 70.14-4.33Q70.14-2.54 71.41-1.28L71.41-1.28Q72.67 0 74.47 0L74.47 0ZM121.24-24.56L115.46-24.56 115.46-15.17 101.01-15.17 101.01-24.56 95.23-24.56 95.23 0 101.01 0 101.01-9.39 115.46-9.39 115.46 0 121.24 0 121.24-24.56ZM131.16-5.78L131.16-18.78 144.16-18.78 144.16-5.78 131.16-5.78ZM129.71 0L145.6 0Q147.4 0 148.68-1.28L148.68-1.28Q149.94-2.54 149.94-4.33L149.94-4.33 149.94-20.23Q149.94-22.02 148.68-23.3L148.68-23.3Q147.4-24.56 145.6-24.56L145.6-24.56 129.71-24.56Q127.92-24.56 126.66-23.3L126.66-23.3Q125.38-22.02 125.38-20.23L125.38-20.23 125.38-4.33Q125.38-2.54 126.66-1.28L126.66-1.28Q127.92 0 129.71 0L129.71 0ZM172.15-18.78L172.15-15.17 159.86-15.17 159.86-18.78 172.15-18.78ZM177.51 0L172.58-9.39 173.58-9.39Q175.37-9.39 176.65-10.67L176.65-10.67Q177.93-11.94 177.93-13.72L177.93-13.72 177.93-20.23Q177.93-22.02 176.65-23.3L176.65-23.3Q175.37-24.56 173.58-24.56L173.58-24.56 154.08-24.56 154.08 0 159.86 0 159.86-9.39 166.12-9.39 171.2 0 177.51 0Z" transform="translate(-2.069999933242798, 24.559999465942383)"></path></g></g></g></g> <!----></g><defs v-gra="od"><linearGradient x1="0" y1="1" x2="0" y2="0" id="1716d0e3-b5af-4cde-94ff-c6118029fb36"><stop offset="0%" stop-color="#b722ff"></stop><stop offset="100%" stop-color="#22d4fe"></stop></linearGradient><filter id="42443b3f1de60f6b6fd3b6a9844b4764" filterUnits="objectBoundingBox"><feColorMatrix type="matrix" values="0 0 0 0 0.99609375  0 0 0 0 0.99609375  0 0 0 0 0.99609375  0 0 0 1 0"></feColorMatrix></filter><linearGradient x1="0" y1="1" x2="0" y2="0" id="0e06ff9e-454d-403f-81df-d2cb4ec2f5fa"><stop offset="0%" stop-color="#b722ff"></stop><stop offset="100%" stop-color="#22d4fe"></stop></linearGradient><filter id="42443b3f1de60f6b6fd3b6a9844b4764" filterUnits="objectBoundingBox"><feColorMatrix type="matrix" values="0 0 0 0 0.99609375  0 0 0 0 0.99609375  0 0 0 0 0.99609375  0 0 0 1 0"></feColorMatrix></filter></defs></svg>